<?xml version="1.0" encoding="utf-8"?>
<!-- Generator: Adobe Illustrator 24.1.2, SVG Export Plug-In . SVG Version: 6.00 Build 0)  -->
<svg version="1.1" id="Layer_1" xmlns="http://www.w3.org/2000/svg" xmlns:xlink="http://www.w3.org/1999/xlink" x="0px" y="0px"
	 viewBox="0 0 200 35" style="enable-background:new 0 0 200 35;" xml:space="preserve">
<style type="text/css">
	.st0{fill:#FFFFFF;}
</style>
<g>
	<path id="christie" class="st0" d="M193.5,6.6h0.4c0.4,0,0.8-0.2,0.8-0.5c0-0.3-0.2-0.5-0.8-0.5c-0.2,0-0.3,0-0.4,0V6.6z
		 M193.5,8.3h-0.5V5.2c0.3-0.1,0.5-0.1,0.9-0.1c0.5,0,0.8,0.1,1,0.2c0.2,0.2,0.3,0.4,0.3,0.6c0,0.4-0.3,0.7-0.6,0.8l0,0
		c0.3,0.1,0.5,0.3,0.5,0.8c0.1,0.5,0.2,0.7,0.2,0.8h-0.5c-0.1-0.1-0.2-0.4-0.2-0.8c-0.1-0.4-0.3-0.5-0.7-0.5h-0.4V8.3z M194,4.4
		c-1.2,0-2.2,1-2.2,2.3s1,2.3,2.3,2.3c1.2,0,2.2-1,2.2-2.3S195.2,4.4,194,4.4L194,4.4z M194,3.9c1.5,0,2.7,1.2,2.7,2.7
		c0,1.5-1.2,2.8-2.7,2.8c-1.5,0-2.8-1.2-2.8-2.8C191.2,5.2,192.5,3.9,194,3.9L194,3.9z M23.9,10.1C15.5,9.3,12.2,15,13.1,20
		c0.4,2.1,2.6,4.3,6.3,4.3c2.2,0,3.6-0.1,5.4-0.6l-1.8,7.1c-0.8,0.1-2.6,0.3-5.6,0.3c-11.2,0-14.2-8.5-14.2-12
		c0-8.7,6.8-16.7,21.1-15.2c2.2,0.2,2.8,0.4,4.9,0.7L27.6,11C27.2,10.8,25.6,10.3,23.9,10.1 M176.7,10.7l-0.9,3.7h9.7l-1.5,5.9h-9.8
		l-1.1,4.2h11.7l-1.5,6.2h-20.8L169,4.6h19.8l-1.5,6.1H176.7L176.7,10.7z M94.8,30.7h-9.3l5.6-22.3l10.3-3.8l0,0L94.8,30.7z
		 M157.8,30.7h-9.3l6.5-26.1h9.3l0,0L157.8,30.7z M51.7,30.7h-8.9l2.5-10.2H39l-2.6,10.2h-9.5l6.5-26.1h9.5l-2.5,9.5h6.4l2.5-9.5h9
		L51.7,30.7z M151.2,4.6l-1.5,6.1h-7.2l-5,20h-9.3l5.1-20h-6.5l1.5-6.1C128.3,4.6,151.2,4.6,151.2,4.6z M86.7,10
		c-0.1,0.9-0.2,1.7-0.5,2.9c-1,3.1-3.9,5.4-8.1,6.7c0.9,3.9,2.2,7.8,3.1,11.2h-9.5c-0.6-3.5-1.4-6.7-2.1-10.2h-2.2l-2.8,10.2h-8.4
		l2.6-10.2L86.7,10z M62.9,4.6h15.1L59.1,19.8L62.9,4.6z M123.3,10.6c-1.5-0.4-3.6-0.7-5.2-0.7c-3.6,0-4.7,0.9-4.7,2.2
		c0,3.1,9.3,3.2,9.3,9.3s-5.3,9.9-15.6,9.9c-2.7,0-6.1-0.1-8.1-0.6l1.5-6.1c1.9,0.6,5.1,0.8,7.1,0.8c3.1,0,4.7-1.2,4.7-2.7
		c0-2.8-9.1-3-9.1-9.3c0-5.9,4.8-9.5,15-9.5c2.3,0,4.7,0.4,6.7,0.6L123.3,10.6z"/>
</g>
</svg>
