<?xml version="1.0" encoding="utf-8"?>
<!-- Generator: Adobe Illustrator 24.1.2, SVG Export Plug-In . SVG Version: 6.00 Build 0)  -->
<svg version="1.1" id="Layer_1" xmlns="http://www.w3.org/2000/svg" xmlns:xlink="http://www.w3.org/1999/xlink" x="0px" y="0px"
	 viewBox="0 0 70 95" style="enable-background:new 0 0 70 95;" xml:space="preserve">
<style type="text/css">
	.st0{fill:#FFFFFF;}
</style>
<g>
	<path class="st0" d="M22.5,93.1h24.3l0.6-1.5H22.5 M26.9,63.6c-0.4-0.1-0.8-0.3-1.1-0.3c-0.4,0-0.8-0.1-1.2-0.1
		c-1.2,0-2.4,0.4-3.2,1.2c-0.9,0.9-1.2,2-1.2,3.4c0,1.2,0.4,2.2,1.2,3.1c0.8,0.8,1.8,1.2,3.1,1.2c0.5,0,0.9,0,1.2-0.1
		c0.4-0.1,0.8-0.3,1.2-0.5h0.1v-1.8l-0.1,0.1c-0.3,0.3-0.8,0.6-1.2,0.8c-0.4,0.1-0.8,0.3-1.2,0.3c-0.8,0-1.2-0.3-1.8-0.9
		c-0.5-0.6-0.8-1.2-0.8-2.2c0-1,0.3-1.7,0.8-2.2c0.5-0.6,1.2-0.9,2-0.9c0.4,0,0.8,0,1.2,0.1c0.4,0.1,0.8,0.3,1.1,0.5l0.3,0.1v-0.3
		L26.9,63.6z M31.8,63.4v0.3c-0.1,0.4-0.1,0.8-0.3,1.1v6.1c0,0.4,0.1,0.6,0.3,1.1v0.3h-2.3v-0.3c0.1-0.4,0.1-0.8,0.3-1.1v-6.1
		c0-0.4-0.1-0.6-0.3-1.1v-0.3C29.5,63.4,31.8,63.4,31.8,63.4z M37.9,67.7v3.1c0,0.4,0.1,0.6,0.3,1.1v0.3h-2.3v-0.3
		c0.1-0.4,0.1-0.8,0.3-1.1v-6.1h-0.1c-0.4,0-0.9,0-1.2,0.1c-0.3,0.1-0.6,0.1-0.9,0.4l-0.3,0.1v-2h7.1v0.1l-0.4,0.8l-0.4,0.6
		l-0.1,0.1L40,64.8c-0.3-0.1-0.6-0.3-0.9-0.4c0,0.1-0.4,0.1-0.8,0.1h-0.1C37.9,64.7,37.9,67.7,37.9,67.7z M46.1,66.7
		c0.1-0.1,0.1-0.3,0.1-0.3c0.8-1.5,1.1-2,1.1-2c0.1-0.1,0.1-0.3,0.1-0.5v-0.5h2.6l-0.3,0.3c-0.1,0.1-0.4,0.4-0.5,0.6
		c-0.3,0.4-0.5,0.9-0.9,1.5c0,0-1.4,2.7-1.4,2.8v2c0,0.4,0.1,0.6,0.3,1.1v0.3h-2.3v-0.3c0.1-0.4,0.1-0.8,0.3-1.1v-2l-1.4-2.8
		c-0.4-0.6-0.6-1.2-0.9-1.5c-0.3-0.4-0.4-0.5-0.5-0.6l-0.3-0.4h2.6v0.5c0,0.1,0.1,0.4,0.1,0.5c0,0,0.3,0.4,1.1,2
		C45.8,66.4,46.1,66.7,46.1,66.7z M34.5,74.3c-0.4-0.4-0.8-0.5-1.2-0.5c-0.5,0-1.1,0.1-1.2,0.5c-0.4,0.4-0.5,0.8-0.5,1.2
		c0,0.5,0.1,0.9,0.5,1.2c0.4,0.4,0.8,0.5,1.2,0.5c0.5,0,1.1-0.1,1.2-0.5c0.4-0.4,0.5-0.8,0.5-1.2S34.8,74.6,34.5,74.3z M33.9,76.5
		c-0.1,0.3-0.4,0.3-0.8,0.3c-0.3,0-0.6-0.1-0.8-0.4c-0.3-0.3-0.3-0.5-0.3-0.9c0-0.3,0.1-0.6,0.3-0.8c0.1-0.3,0.4-0.3,0.8-0.3
		c0.3,0,0.6,0.1,0.8,0.4c0.3,0.3,0.3,0.5,0.3,0.9C34.3,76,34.2,76.3,33.9,76.5z M37,77.2C37,77,37,76.9,37,76.7v-1.1h0.4
		c0.1,0,0.1,0,0.3,0.1l0.1,0.1l0.4-0.6h-1.2v-0.9h0.8c0.1,0,0.3,0.1,0.4,0.1l0.1-0.3l0.1-0.4h-2.3v0.1c0,0.1,0.1,0.3,0.1,0.4v2.4
		c0,0.1,0,0.3-0.1,0.4v0.1L37,77.2L37,77.2z M32.2,86.8c0-0.4-0.1-0.8-0.1-1.2v-4c0-0.5,0-0.9,0.1-1.2c0-0.4,0.1-0.6,0.3-1.1
		l0.1-0.3h-2.3l0.1,0.3c0.1,0.4,0.1,0.8,0.3,1.1v4.9c-0.3-0.4-2.8-3.8-2.8-3.8c-0.3-0.4-0.5-0.8-0.8-1.1s-0.4-0.6-0.6-1.2v-0.1h-1.8
		l0.1,0.3c0,0,0.4,0.8,0.4,1.2v6c0,0.4-0.1,0.6-0.3,1.1V88h2.3L27,87.7c-0.1-0.4-0.1-0.8-0.3-1.1v-3.9c0.3,0.3,2.7,3.6,2.7,3.6
		c0.3,0.3,0.5,0.6,0.6,0.9c0.3,0.4,0.3,0.5,0.3,0.5V88h2.2l-0.1-0.3C32.4,87.5,32.2,87.3,32.2,86.8z M21.8,80.3
		c-0.8-0.9-2-1.2-3.1-1.2c-1.2,0-2.4,0.4-3.4,1.2c-0.9,0.9-1.2,2-1.2,3.2c0,1.2,0.4,2.4,1.2,3.2c0.8,0.9,1.8,1.2,3.1,1.2
		c1.2,0,2.4-0.4,3.4-1.2c0.9-0.9,1.2-2,1.2-3.2C23,82.3,22.6,81.1,21.8,80.3z M20.6,85.8c-0.5,0.5-1.1,0.8-1.8,0.8s-1.4-0.3-2-0.9
		c-0.5-0.6-0.8-1.4-0.8-2.4c0-0.8,0.3-1.5,0.8-2c0.5-0.5,1.1-0.8,1.8-0.8c0.8,0,1.4,0.3,2,0.9c0.5,0.6,0.8,1.4,0.8,2.4
		C21.2,84.6,20.9,85.2,20.6,85.8z M63,86.8c0-0.4-0.1-0.8-0.1-1.2v-5.2c0-0.4,0.1-0.6,0.3-1.1l0.1-0.3H61l0.1,0.3
		c0.1,0.4,0.1,0.8,0.3,1.1v4.9c-0.3-0.4-2.8-3.8-2.8-3.8c-0.3-0.4-0.5-0.8-0.8-1.1s-0.4-0.6-0.6-1.2v-0.1h-1.8l0.1,0.3
		c0,0,0.4,0.8,0.4,1.2v6c0,0.4-0.1,0.6-0.3,1.1V88h2.3l-0.1-0.3c-0.3-0.5-0.3-0.8-0.4-1.2v-3.9c0.3,0.3,2.7,3.6,2.7,3.6
		c0.3,0.3,0.5,0.6,0.6,0.9c0.3,0.4,0.3,0.5,0.3,0.5v0.3h2.2L63,87.6C63.1,87.5,63,87.3,63,86.8z M49.2,78.9c-1.2,0-2.4,0.4-3.4,1.2
		c-0.9,0.9-1.2,2-1.2,3.2s0.4,2.4,1.2,3.2c0.8,0.9,1.8,1.2,3.1,1.2c1.2,0,2.4-0.4,3.4-1.2c0.9-0.9,1.2-2,1.2-3.2s-0.4-2.4-1.2-3.2
		C51.5,79.5,50.4,78.9,49.2,78.9z M51,85.8c-0.5,0.5-1.1,0.8-1.8,0.8c-0.7,0-1.4-0.3-2-0.9c-0.5-0.6-0.8-1.4-0.8-2.4
		c0-0.8,0.3-1.5,0.8-2c0.5-0.5,1.1-0.8,1.8-0.8c0.8,0,1.4,0.3,2,0.9c0.5,0.6,0.8,1.4,0.8,2.4C51.7,84.6,51.5,85.2,51,85.8z
		 M35.3,86.6c0,0.4-0.1,0.6-0.3,1.1v0.3h2c1.2,0,2.9,0,4-0.6c0.9-0.6,1.5-1.7,1.7-2.9v-0.6c0-1.1-0.3-2-0.9-2.7
		c-0.8-1.1-1.7-1.5-2.9-1.7h-4.1l0.1,0.3c0.1,0.4,0.1,0.8,0.3,1.1v4.8C35.3,85.8,35.3,86.1,35.3,86.6z M37,80.3h1.2
		c0.8,0.1,1.5,0.6,2,1.2c0.5,0.6,0.6,1.5,0.5,2.4c-0.1,0.9-0.4,1.5-0.9,1.8c-0.9,0.6-1.8,0.6-2.8,0.6H37V80.3L37,80.3z M12.3,87.8
		H6.8v-0.3c0.1-0.4,0.1-0.8,0.3-1.1v-6.1c0-0.4-0.1-0.6-0.3-1.1l-0.1-0.2h2.4L9,79.4c-0.1,0.4-0.1,0.8-0.3,1.1v6.1h0.4
		c0.5,0,1.2,0,2-0.1c1.5-0.4,2.2-0.9,2.2-0.9l-0.1,0.3l-0.5,1.2L12.3,87.8 M27,57.6v-1.5c0-0.4,0-0.6-0.1-0.9h1.4
		c0.1,0,0.4,0.1,0.5,0.1c0.1,0.1,0.3,0.1,0.4,0.3c0.1,0.2,0.3,0.3,0.3,0.4c0.1,0.1,0.1,0.3,0.3,0.4c0,0.1,0.1,0.3,0.1,0.5
		c0,0.1,0,0.3-0.1,0.4c0,0.1-0.1,0.3-0.1,0.4c-0.1,0.1-0.1,0.3-0.3,0.3c-0.1,0.3-0.3,0.4-0.4,0.4c-0.1,0.1-0.3,0.1-0.4,0.1
		s-0.3,0.1-0.5,0.1H27C27,58.3,27,57.6,27,57.6z M29,57c0-0.1,0-0.4-0.1-0.5c-0.1-0.1-0.3-0.4-0.4-0.5c-0.1-0.1-0.3-0.1-0.4-0.3
		h-0.5V58h0.4c0.1,0,0.3,0,0.3-0.1c0.1,0,0.1-0.1,0.3-0.1c0.2,0,0.1-0.1,0.3-0.3c0.1-0.1,0.1-0.3,0.1-0.3C29,57.2,29,57,29,57z
		 M30.6,58.5c0.1-0.3,0.1-0.5,0.1-0.9v-1.5c0-0.4,0-0.6-0.1-0.9h0.9c-0.1,0.3-0.1,0.5-0.1,0.9v1.5c0,0.3,0,0.6,0.1,0.9H30.6z
		 M33.1,57.2v0.4c0,0.3,0,0.6,0.1,0.9h-0.9c0.1-0.3,0.1-0.5,0.1-0.9v-1.5c0-0.4,0-0.6-0.1-0.9h1.1c0.1,0,0.4,0,0.5,0.1
		c0.1,0,0.3,0.1,0.4,0.3c0.1,0.2,0.1,0.3,0.3,0.3c0,0.1,0.1,0.3,0.1,0.4c0,0.3-0.1,0.4-0.3,0.5c-0.1,0.1-0.3,0.3-0.5,0.4
		c0.1,0.1,0.1,0.3,0.3,0.4l0.4,0.4l0.4,0.4l0.3,0.3h-0.4c-0.1,0-0.3-0.1-0.4-0.4C33.8,58,33.6,57.6,33.1,57.2L33.1,57.2z M33.4,56.9
		c0.1,0,0.1-0.1,0.3-0.1c0.1,0,0.1-0.1,0.1-0.1c0-0.1,0.1-0.1,0.1-0.3s0-0.1-0.1-0.3c0-0.1-0.1-0.1-0.1-0.1c-0.1,0-0.1-0.1-0.3-0.1
		h-0.3v1.2C33.3,56.9,33.4,56.9,33.4,56.9z M35.6,58.5c0.1-0.3,0.1-0.5,0.1-0.9v-1.5c0-0.4,0-0.6-0.1-0.9h0.9
		c-0.1,0.3-0.1,0.5-0.1,0.9v1.5c0,0.3,0,0.6,0.1,0.9H35.6z M39.9,57.6V57c0-0.1,0-0.3-0.1-0.4h0.9c0,0.1-0.1,0.3-0.1,0.4v1.2
		c-0.1,0-0.4,0.1-0.5,0.1h-0.5c-0.4,0-0.6,0-0.9-0.1S38.1,58,38,57.9s-0.3-0.4-0.4-0.5c-0.1-0.1-0.1-0.4-0.1-0.5
		c0-0.3,0-0.4,0.1-0.6c0.1-0.3,0.3-0.4,0.4-0.5c0.1-0.1,0.4-0.3,0.6-0.4s0.5-0.1,0.8-0.1h1.1v0.8c-0.1,0-0.1-0.1-0.3-0.1
		S40,55.9,40,55.9c-0.1-0.1-0.3-0.1-0.4-0.1h-0.3c-0.4,0-0.6,0.1-0.9,0.4c-0.3,0.3-0.3,0.5-0.3,0.9c0,0.1,0,0.3,0.1,0.5
		c0,0.1,0.1,0.3,0.3,0.4c0.1,0.1,0.3,0.3,0.4,0.3c0.1,0.1,0.4,0.1,0.5,0.1h0.4L39.9,57.6L39.9,57.6L39.9,57.6z M43.4,58.5h-2
		c0.1-0.3,0.1-0.5,0.1-0.9v-1.5c0-0.4,0-0.6-0.1-0.9h2l-0.1,0.6c0,0-0.1-0.1-0.3-0.1h-0.8v1.1h1.1l-0.3,0.5c0,0-0.1,0-0.3-0.1h-0.6
		v1.1h1c0.1,0,0.3-0.1,0.5-0.1C43.7,58,43.4,58.5,43.4,58.5z"/>
	<path class="st0" d="M62.5,56.6c-2,1.2-6.3-0.9-9.2-2.6c-3.6-2-6.6-3.1-8.4-3.1c0.5,0.4,0.8,1.1,0.5,1.7c-0.3,0.8-1.1,1.2-1.8,1.2
		c-0.6-1.1-2-1.5-2.8-2.3c0,0-1.2-1.1,2.8-1.4c4.5-0.4,10.3,3.8,14.1,5.4c0.6,0.3,5.2,2.4,5.7-1.7c0-0.1,0.1-0.1,0,0
		C63.6,55.5,63.1,56.2,62.5,56.6z M7.4,56.6c2,1.2,6.3-0.9,9.2-2.6c3.6-2,6.6-3.1,8.4-3.1c-0.5,0.4-0.8,1.1-0.5,1.7
		c0.3,0.8,1.1,1.2,1.8,1.2c0.6-1.1,2-1.5,2.8-2.3c0,0,1.2-1.1-2.8-1.4c-4.5-0.4-10.3,3.8-14.1,5.4c-0.6,0.3-5.2,2.4-5.7-1.7
		c0-0.1-0.1-0.1,0,0C6.5,55.5,6.9,56.2,7.4,56.6z M26.7,59.3c-1.2-0.4-1.8-1.1-2-1.7c0.3,1.1,1.1,2.4,2.8,2.4h15.3
		c2,0,2.6-1.4,2.8-2.4c-0.3,0.6-0.8,1.4-2,1.7c-0.6,0.1-2.9,0.1-3.6,0.1h-9.4C29.7,59.4,27.4,59.4,26.7,59.3z"/>
	<path class="st0" d="M8.5,54.9l-0.3-1.4c0-0.3-0.1-0.5-0.3-0.8l0.6-0.1h1.1c0.1,0,0.3,0.1,0.4,0.1c0.1,0.1,0.3,0.1,0.4,0.3
		c0.1,0.1,0.3,0.3,0.3,0.4c0.1,0.1,0.1,0.3,0.1,0.4V54c0,0.1,0,0.3-0.1,0.4c0,0.1-0.1,0.3-0.1,0.4L10.3,55c-0.1,0.1-0.3,0.1-0.4,0.3
		c-0.1,0.1-0.3,0.1-0.4,0.1l-1.1,0.1L8.5,54.9L8.5,54.9z M10.3,53.8c0-0.1-0.1-0.3-0.3-0.5c-0.1,0-0.3-0.1-0.4-0.3
		C9.6,53,9.4,53,9.3,53H8.8l0.4,2.3c0.1,0,0.3,0,0.3-0.1c0.1,0,0.1-0.1,0.3-0.1c0.2,0,0.1-0.1,0.3-0.1l0.3-0.3
		c0-0.1,0.1-0.3,0.1-0.3S10.3,53.8,10.3,53.8z M14.4,52.4c0.1,0.3,0.1,0.5,0,0.6c0,0.3-0.1,0.4-0.3,0.6L13.7,54
		c-0.1,0.1-0.4,0.3-0.5,0.3c-0.4,0.1-0.9,0.1-1.2-0.1c-0.1-0.1-0.4-0.3-0.5-0.4c-0.1-0.1-0.3-0.4-0.3-0.5c-0.1-0.4-0.1-0.8,0.1-1.1
		c0.1-0.3,0.3-0.4,0.4-0.5c0.1-0.1,0.4-0.3,0.6-0.4c0.3,0,0.4-0.1,0.6,0c0.3,0,0.4,0.1,0.6,0.1c0.3,0.1,0.4,0.3,0.5,0.4
		C14.1,52.1,14.3,52.2,14.4,52.4z M13.1,54c0.1,0,0.3-0.1,0.4-0.1l0.3-0.3c0-0.1,0.1-0.3,0.1-0.4V53c0-0.1-0.1-0.3-0.3-0.4l-0.4-0.4
		c-0.1,0-0.3-0.1-0.4-0.1h-0.4c-0.1,0-0.3,0.1-0.4,0.1c-0.1,0-0.3,0.1-0.3,0.3c-0.1,0.1-0.1,0.3-0.1,0.4v0.4c0,0.1,0.1,0.3,0.3,0.4
		c0.1,0.1,0.3,0.3,0.4,0.3c0.1,0.1,0.3,0.1,0.4,0.1C12.9,54,12.9,54,13.1,54z M16.9,52.6l-1.8-1.2l0.4,1.1v0.3
		c0.1,0.3,0.3,0.4,0.4,0.5l-0.6,0.4c0-0.3-0.1-0.5-0.3-0.8l-0.6-1.4c-0.1-0.1-0.1-0.3-0.3-0.3C13.9,51,13.9,51,13.7,51l0.5-0.3
		l2,1.2v-2.3l0.5-0.3c0,0.1,0,0.1,0.1,0.3c0,0.1,0.1,0.3,0.1,0.4l0.8,1.2c0.1,0.3,0.3,0.5,0.5,0.6l-0.8,0.4c0-0.3-0.1-0.4-0.3-0.6
		l-0.5-1.1C16.7,50.6,16.9,52.6,16.9,52.6z M19.2,51.4c0-0.3-0.1-0.5-0.3-0.8l-0.6-1.2c-0.1-0.3-0.3-0.5-0.5-0.6l0.8-0.4
		c0,0.3,0.1,0.5,0.3,0.8l0.6,1.2c0.1,0.3,0.3,0.5,0.5,0.6C20,51.1,19.2,51.4,19.2,51.4z M20.9,50.1c0,0.1,0.1,0.3,0.3,0.3l-0.6,0.3
		c0-0.3,0-0.5-0.1-0.8L20,48.3c0,0,0-0.1-0.1-0.1l-0.1-0.1l-0.3-0.1l0.8-0.3l2.2,1.4L22.2,48c0-0.1-0.1-0.3-0.1-0.4
		c0-0.1-0.1-0.3-0.3-0.3l0.6-0.3v0.4c0,0.1,0,0.3,0.1,0.4l0.5,1.4c0.1,0.3,0.3,0.5,0.3,0.6l-0.5,0.1c0,0-0.1,0-0.1-0.1l-0.1-0.1
		l-0.1-0.1l-1.7-1.1l0.4,1.2C20.9,49.8,20.9,50,20.9,50.1z M25.5,49.5l-2,0.3c0-0.3,0.1-0.5,0-0.8l-0.3-1.4c0-0.3-0.1-0.5-0.3-0.8
		l2-0.3L24.9,47c0,0-0.1,0-0.3-0.1h-0.8l0.3,1.1l1.1-0.1L25,48.4h-0.9l0.1,0.9h0.4c0.1,0,0.3,0,0.4-0.1c0.1,0,0.3-0.1,0.4-0.3
		C25.3,49,25.5,49.5,25.5,49.5z M48.1,49.8v0.4l-0.6-0.3c0.1-0.1,0.3-0.4,0.4-0.6l0.6-1.5v-0.4l-0.1-0.4l0.8,0.3l0.8,2.6l0.5-1.2
		c0-0.1,0.1-0.3,0.1-0.4v-0.4l0.6,0.3c-0.1,0.1-0.1,0.3-0.3,0.3c-0.1,0.1-0.1,0.3-0.1,0.4l-0.5,1.3c-0.1,0.3-0.1,0.5-0.3,0.8
		l-0.5-0.3v-0.5l-0.5-2l-0.4,1.2C48.3,49.7,48.3,49.8,48.1,49.8z M54.3,51.2c-0.1,0.3-0.3,0.4-0.4,0.6c-0.1,0.1-0.4,0.3-0.6,0.4
		c-0.1,0.1-0.4,0.1-0.5,0.1c-0.3,0-0.4,0-0.6-0.1c-0.4-0.1-0.8-0.4-0.9-0.9c-0.1-0.3-0.1-0.5-0.1-0.6c0-0.3,0-0.4,0.1-0.6
		c0.1-0.4,0.4-0.6,0.6-0.8c0.3-0.1,0.5-0.1,0.6-0.3c0.3,0,0.5,0,0.6,0.1c0.3,0.1,0.4,0.1,0.5,0.4c0.1,0.1,0.3,0.3,0.4,0.5
		c0.1,0.3,0.1,0.4,0.1,0.6C54.4,50.8,54.3,50.9,54.3,51.2z M52.3,51.7c0.1,0,0.3,0.1,0.4,0.1c0.1,0,0.3,0,0.4-0.1
		c0.1,0,0.3-0.1,0.3-0.3c0.1-0.1,0.1-0.3,0.3-0.4c0-0.1,0.1-0.3,0.1-0.5c0-0.1,0-0.4-0.1-0.5c0-0.1-0.1-0.3-0.3-0.3
		c-0.1-0.1-0.3-0.1-0.4-0.3c-0.1,0-0.3-0.1-0.4-0.1c-0.1,0-0.3,0-0.4,0.1c-0.1,0-0.3,0.1-0.4,0.3c-0.1,0.1-0.1,0.3-0.3,0.4
		c0,0.1-0.1,0.3-0.1,0.5c0,0.1,0,0.3,0.1,0.4c0,0.1,0.1,0.3,0.3,0.4C52.1,51.5,52.2,51.5,52.3,51.7z M55.2,52.1
		c-0.1-0.3-0.3-0.4-0.3-0.6v-0.5c0.1-0.3,0.3-0.4,0.5-0.4s0.5,0,0.8,0.1c0.1,0,0.1,0.1,0.3,0.3c0.1,0.1,0.3,0.1,0.3,0.3l-0.3,0.5
		c0,0,0-0.1-0.1-0.1l-0.1-0.1l-0.1-0.1l-0.1-0.1c-0.1-0.1-0.3-0.1-0.4-0.1s-0.1,0.1-0.3,0.1c0,0.1-0.1,0.3,0,0.3
		c0,0.1,0.1,0.3,0.3,0.4l0.1,0.1c0.1,0.1,0.1,0.1,0.1,0.3c0,0.2,0.1,0.1,0.1,0.3v0.3c0,0.1,0,0.3-0.1,0.3c-0.1,0.3-0.3,0.4-0.5,0.5
		c-0.3,0-0.5,0-0.8-0.1c-0.1,0-0.3-0.1-0.4-0.3c-0.1-0.2-0.4-0.4-0.4-0.4l0.3-0.5l0.1,0.1l0.1,0.1l0.1,0.1c0.1,0,0.1,0.1,0.3,0.1
		c0.1,0.1,0.3,0.1,0.4,0c0.1,0,0.1-0.1,0.3-0.3C55.3,52.3,55.4,52.2,55.2,52.1C55.5,52.6,55.3,52.3,55.2,52.1
		C55.2,52.2,55.2,52.2,55.2,52.1L55.2,52.1z M45.8,36.4v-8.4c0.5-0.1,0.8-0.4,1.1-0.9c0,0,1.8,1.8,1.8,2.2c0,0.3-0.6,0.6-0.4,2
		c0,0,0,0.1,0.1,0c0.1-0.1,0.4-0.3,0.6-0.4l0.1-0.1c0-0.5,0.8-2.9,4.3-4.8c0.1-0.1,0.1-0.1,0-0.1c-1.2,0.5-3.2,2-3.4,2
		c-0.2,0-0.3,0.1-0.3,0.1c-0.6,0-1.8-1.2-2-1.5l-0.9-0.9c0,0-0.3-0.3-0.5-0.3c-3.5-0.9-3.8,0-4.3,0.3c-0.1,0.1-0.3,0.3-0.3,0.4h-3.6
		L38,26.3c-0.5,0.4-1.1,0.6-1.4,0.6v9.6C36.6,36.4,45.8,36.4,45.8,36.4z M42.3,27.3c-0.1,0.1-0.1,0.4-0.1,0.4
		c-0.1-0.4-0.1-0.6-0.1-0.9c0.1,0,0.3-0.1,0.3-0.5c0-0.4,0.4-0.3,0.4-0.3s-0.3,0.5,0,1.1C42.6,27.5,42.3,27.3,42.3,27.3z M45.7,26.7
		c-2.4-0.6-1.5,0.8-2.2,0.6c-0.1,0.1-0.1,0.4-0.1,0.4c-0.3-0.3-0.3-0.6-0.3-0.9c0.4,0-0.1-1.2,2-0.6C45.7,26.4,45.8,26.5,45.7,26.7
		C45.8,26.7,45.7,26.7,45.7,26.7z M24.1,39.9c1.2,9.6,10.7,13,10.7,13s9.4-3.5,10.7-13h-9v11.5c-0.5,0.3-1.2,0.5-1.7,0.8
		c-0.6-0.3-1.2-0.5-1.8-0.9V39.9C33,39.9,24.1,39.9,24.1,39.9z"/>
	<path class="st0" d="M39,23.5h-0.4c-0.8,0.1-2.3,0.9-2.8,1.2c1.4-1.5,2.3-1.8,2.3-1.8l-0.2-0.2c-0.1-0.1-0.3-0.4-0.4-0.9
		c-0.6,1.1-2.6,1.5-3.8,1.8c-0.4,0.3-1.2,1.3-1.2,2.2h-4.1c0-0.1-0.1-0.3-0.3-0.4c-0.3-0.3-0.8-1.2-4.3-0.3
		c-0.4,0.1-0.5,0.3-0.5,0.3l-0.9,0.9c-0.3,0.3-1.5,1.4-2,1.5c-0.1,0-0.3-0.1-0.3-0.1s-2-1.4-3.4-2c-0.1,0-0.3,0,0,0.1
		c3.5,2,4.3,4.4,4.3,4.8c0,0,0,0.1,0.1,0.1c0.3,0.1,0.5,0.3,0.6,0.4h0.1c0.1-1.2-0.4-1.7-0.4-2c0-0.3,1.7-2.2,1.8-2.2
		c0.3,0.5,0.5,0.8,1.1,0.9v8.4h9.1v-9c0.1,0,0.3,0.1,0.4,0.1h0.5c0.8-0.1,1.2-0.9,1.4-1.2c0.3,0.3,0.5,0.4,1.2,0.3
		c0.1-0.1,0.4-0.3,0.6-0.4c0.1-0.1,0.4-0.3,0.5-0.5c0.9-0.9,1.4-1.1,1.8-1.1c0.1,0,0.3,0.1,0.3,0.3v0.1c0,0.1,0.1,0.4-0.1,0.6
		c-0.1,0.1-0.3,0.3-0.4,0.5c0.1,0,0.5-0.1,0.6-0.4c0.1-0.1,0.3-0.3,0.3-0.5C40.3,23.8,39,23.5,39,23.5z M26.5,27.8
		c0,0,0-0.3-0.1-0.4c-0.6,0.3,0.3-1.2-2.2-0.6h-0.1c0-0.1,0.1-0.4,0.6-0.5c2.3-0.5,1.7,0.6,2,0.6C26.9,27.1,26.9,27.3,26.5,27.8z
		 M27.1,27.1c0.4-0.5,0-1.1,0-1.1s0.4-0.1,0.4,0.3s0.1,0.5,0.3,0.5c0,0.3,0,0.5-0.3,0.9c0,0,0-0.3-0.1-0.4
		C27.5,27.3,27.3,27.5,27.1,27.1z M29.9,34.2c-0.1,0.1-0.3,0.1-0.3,0c-0.1-0.1-0.3-0.3-0.5-0.3V34c0,0.1,0,0.1-0.1,0.3v0.1
		c0,0.1,0,0.1-0.1,0.3v0.1c0,0.1,0,0.1-0.1,0.3v0.1c0,0.1-0.1,0.3-0.3,0.3c-0.1,0-0.3-0.1-0.3-0.3V35c0,0-0.1-0.1-0.1-0.3v-0.1
		c0,0-0.1-0.1-0.1-0.3v-0.1c0-0.1-0.1-0.1-0.1-0.3v-0.1c-0.3,0-0.6-0.1-0.9-0.4c-0.1-0.1-0.1-0.3,0-0.3c0.1-0.1,0.3-0.1,0.3,0
		c0.1,0.1,0.4,0.3,0.5,0.3l0.1-5.2v-0.3l0.3-0.4l0.3,0.4v0.3l0.1,5.2c0.3,0,0.6,0.1,0.9,0.4C29.9,34.1,29.9,34.2,29.9,34.2
		L29.9,34.2z"/>
	<g>
		<path class="st0" d="M3.4,16.9c0.9,1.5,0.6,3.6-0.1,5c-0.2,0.4-0.4,0.2-0.3-0.1c0.6-2.4,0.4-4.3,0.1-4.9
			C3.1,16.8,3.2,16.7,3.4,16.9z M3.3,23.8c1.1,1.2,1.2,3.5,0.8,4.8c-0.1,0.3-0.4,0.3-0.3,0C4,26.5,3.5,24.5,3.3,23.8
			C3,23.6,3.2,23.5,3.3,23.8z M4.4,29.8C4.3,29.7,4.4,29.6,4.4,29.8c1.5,0.3,3,2.2,3.5,3.5c0,0.1-0.2,0.4-0.3,0.1
			C6.5,31.6,4.8,30.1,4.4,29.8z M4.6,23.8c-0.2-0.2-0.4-0.5-3-1.1c-0.1,0-0.1-0.1,0-0.1c1.7,0,2.7,0.3,3.4,0.9
			C5.1,23.6,5.1,24,4.6,23.8z"/>
		<path class="st0" d="M8.8,27.3c-0.3,0-0.9,0.1-1.2,0.3c-0.8-1.8-1.5-3.5-2-6.9c0-0.3-0.1-0.3-0.1,0c0,3.6,0.5,5.2,1.2,7.2
			c-1.1,0.4-2,0.8-3.6,1.5c-0.1,0,0,0.3,0.1,0.1c1.5-0.5,2.7-0.8,3.8-1.1c1.2,3.1,2.8,4.1,3.5,4.5c0.3,0.3,0.6,0.4,0.9,0.5
			c0.5,0.3,1.1,0.1,1.2-0.1c0.3-0.3,0-0.6-0.4-0.9c-0.6-0.4-2.6-1.2-4.1-4.3c0.6-0.1,1.4-0.1,1.7-0.1c0.5,0,0.6-0.4,0.5-0.6
			C9.9,27.3,9.7,27.2,8.8,27.3z M9.4,33.3c0.3,0,0.4,0.3,0.1,0.4c-0.1,0-0.6,0-2,1.1c-0.1,0.1-0.1,0-0.1-0.1
			C8.1,33.8,8.9,33.4,9.4,33.3z M2.5,31.5c1.1,1.1,1.7,0.9,2,0.5c-0.1,0.9-0.9,0.8-0.9,0.8H3.6c0.9,0.4,2.3,1.1,3.1,2.4L7,35.8
			c-0.3-0.3-0.6-0.4-1.1-0.5c-0.5-1.2-1.7-1.8-2.4-2.3C4,33.6,3.8,34,3.8,34.5c0-0.3-0.5-0.8-0.5-0.8s-0.5-0.5-0.6-1.1
			c-0.4-1.5-1.2-1.8-1.2-1.8S1.6,30.5,2.5,31.5z"/>
		<path class="st0" d="M3.2,14c-0.1-0.4-0.4-0.3-0.3,0c2.4,6,7.4,11.5,7.4,11.5c1.1,1.2,2.7,2.7,0.8,3.2c-0.5,0.1-1.8,1.2,2,3.6
			c0.6,0.4,1.2,0.1,1.1-0.4c-0.1-0.3-1.2-0.9-1.7-1.2c-0.8-0.6-0.9-0.8,0.1-1.2c0.4-0.1,1.8-1.1,0.9-2c-4.8-5.2-2.8-14.1-2.8-14.1
			c0-0.3-0.1-0.3-0.1,0c0,0-1.2,4.5-2.8,6c0.4,0.6,1.2,2.3,2.2,4.4C8.8,22.4,6.3,20,3.2,14z"/>
	</g>
	<path class="st0" d="M5.1,38.8C4.5,38.7,4,38,4,37.4c0-0.9,0.6-1.5,1.5-1.5h0.4c0.9,0.3,1.2,0.9,1.2,1.1c0.4,1.2-0.4,2.8-0.8,3.5
		c-0.4,0.5-0.8,1.5,0,2c2,0.6,2.6-2,2.8-2.9c0.4-1.5,0.9-2.6,2.3-3.6c0.1-0.1,0.3-0.1,0.3-0.3c-0.1-0.1-0.3-0.3-0.5-0.3
		c-1.4-0.8-1.8-0.6-2-0.6v-0.1c0.1-0.3,0.9-0.3,2,0c1.8,0.6,2,0.4,2.7-0.4c0.1-0.1,0.3-0.3,0.5-0.4c1.1-1.2,0.4-3.1,0.4-3.1
		c-0.3-0.8-0.9-2-0.9-2l-0.4-0.8c-0.9-1.8-1.8-3.5-1.5-4.5c0.1-0.6,0.4-0.8,0.8-1.2c0-0.3-0.3-0.5-0.4-0.6v-0.1
		c0.3-0.3,0.3-0.6-0.1-1.1v-0.1c0.3-0.3,0.4-0.5,0.1-1.1v-0.3c0.3-0.1,0-0.6,0.9-1.5c0.1-0.1,0.1,0,0.1,0c-0.1,0.6,0.4,1.1,0.6,1.5
		c0.1-0.1,0-0.4,0.3-0.6c0.1-0.1,0.1,0,0.1,0c-0.1,0.9,0.9,1.1,0.6,2.3c0,0,0.5-0.3,2.2-0.5c0.3,0,0.6,0,0.5,0.4
		c0,0-0.1,0.1-0.4,0.1c-0.4,0-1.1,0.3-1.1,0.3c-0.1,0-0.4,0.1-0.5,0.1c-0.4,0.1-0.1,0.3-0.1,0.3c0.5,0.3,0.6,0.3,0.9,0.4
		c0,0,0.1,0,0.3,0.1c0.3,0,0.4,0,0.4-0.3v-0.3c-0.1-0.1,0.6-0.4,1.1-0.4c0.6-0.1,1.4-0.1,2.2-0.1c0.1,0,1.1,0.1,1.2,0.5
		c-0.3-0.3-0.9-0.3-1.1-0.1c-0.1,1.1-0.4,1.2-1.4,1.4l-2.9,0.4c-0.6,0.1-0.6,0.6-0.3,0.6l0.9-0.1h0.5c0.5-0.3,1.2-0.6,2.2-0.3
		c0.3,0.1,0.6,0,1.1-0.3c-0.1-0.1-0.4-0.4-0.4-0.5c0,0,1.1,0.5,1.4-0.3c0,0.8-0.3,1.2-1.2,1.5c0-0.3,0.1-0.4,0.3-0.5
		c-0.1,0-0.4,0.1-0.5,0.1c-0.4,0.1-0.8,0-0.9,0c0,0.3,0.1,0.8,0.5,1.1c-0.8,0-1.2-0.3-1.2-0.3s0,0.5,0.3,0.8c-1.7,0-1.8-0.6-4.4-0.6
		c-0.1-0.4-0.5-0.8-0.9-1.1c0.4-0.4,0.4-1.2,0.4-1.4c-0.3,0.6-0.6,1.2-1.5,1.4c1.1,0.4,1.4,1.4,1.4,1.8c0.4-0.1,0.6-0.1,0.9,0
		c-0.3,0.1-0.5,0.3-0.5,0.6s0,0.6,0.4,1.1l9.6,6.9c0.4,0.4,0.5,1.1,0.8,1.7c0.1,0.6,0.5,3.2-1.4,3.6c-0.3,0-0.8,0.1-1.2-0.3h0.4
		c0,0-0.1-0.3,0.4-0.3c0.4,0,0.3-0.4,0.3-0.4s-0.6,0.3-0.9-0.3c0,0,0.1,0.1,0.4,0c0-0.8,1.4,0.4,1.2-1.8c-0.3-0.8-0.8-0.6-1.2-0.5
		c-0.3,0.1-0.4-0.1-0.4-0.1c-0.1,0-0.3,0.3-0.3,0.3c0.1-0.6,0.6-0.8,1.4-1.1l-0.5-0.3l-1.8-0.8c0,0-1.2,2.3-2.8,4
		c1.2,0,1.7,0.1,2.2,0.3c0,0,0.3,0,0.4,0.4c0.3,0.4,0.4,0.9,0,1.8c-0.3,0.6-0.9,1.4-2,2.4c-1.1,0.9-1.5,2.2,0.3,2.9
		c0.5,0.3,1.1,0.3,1.2,0.4c0,0,0.9-0.3,1.5-0.5c0.5-0.3,1.2-0.3,1.7,0.1c0.1,0.1,0.1,0.1,0.1,0.3c0.1,0.3,0.1,0.5,0,0.8
		c0,0-0.1-0.5-0.4-0.4c-0.5,0.4-0.3-0.3-0.9-0.1c0,0,0.5,0.3,0.1,0.9c0,0-0.1-0.4-0.3-0.4c-0.6,0.3-0.1-0.4-1.5,0.1l-1.8,0.8
		c-0.1,0.1-0.5,0.3-0.9,0.5c-0.1-0.4,0.5-0.9,0.6-1.1c0,0-1.2-1.2-2.2-1.8c-0.3-0.1-0.5-0.3-0.6-0.4C16,44.2,16,44,16.3,43.4
		c0.1-0.1,2.3-2.3,2.9-3.2c0.8-0.9,0.8-1.5,0.1-1.7l-2.6-0.3c0,0-1.1,0-1.5-0.1c-0.1,0-0.1-0.1,0-0.1c0.9-0.4,3.2-1.5,4.9-4.9
		c-0.8-0.3-1.7,0-2,0.1h-0.4l-0.9-1.1c0,0.1,0.3,0.6,0.4,0.9c0.1,0.1,0,0.3,0,0.3c-0.6,0.9-1.2,2-2.2,2.8c-0.1,0.1-0.3,0.1-0.3,0.3
		C14.2,37,14.2,38,15,39.2v0.4c0.1,0.3,0.4,0.8,0.3,1.5c0,0.1-0.1,0.4-0.1,0.6c0,0.1,0,0.3-0.1,0.3c-0.4,1.4-2.3,3.4-4.9,4.8
		c-0.1,0.1-0.3,0.1-0.4,0.3l1.2,2.7c0,0,0.6-0.1,1.2-0.5c0.4-0.3,1.2-0.4,1.7,0c0.1,0.1,0.1,0.1,0.1,0.3c0.1,0.3,0.1,0.6,0,0.8
		c0,0-0.3-0.5-0.3-0.4c-0.4,0.4-0.3-0.1-0.8,0c0,0,0.4,0.4,0,0.9c0,0-0.1-0.4-0.3-0.3c-0.6,0.3-0.1-0.3-1.5,0.3c0,0-1.5,0.8-2.7,0.8
		c0.1-0.4,0.9-0.9,0.9-0.9c-0.1-1.7-0.6-3.2-1.1-4.3c-0.5-1.1,1.7-0.8,2-2l0.3-1.5c0.3-2,0.4-2.6,0.6-3.5c0.3-0.8,1.1-2.4,1.1-2.7
		h-0.1c-0.4,0.4-1.8,2-2,5.8c0,0,0,0.1-0.1,0.3c-1.8,1.7-4.1,1.4-4.9,0.5c-1.4-1.7-0.4-3.4,0.4-4.1c0.8-0.8,0.9-1.2,0.8-2
		c0-0.3-0.1-0.3-0.1-0.3C6.2,37,6,36.9,5.7,36.9c-0.4,0-0.6,0.3-0.6,0.6c0,0.4,0.3,0.6,0.6,0.6C5.7,38,5.6,38.5,5.1,38.8"/>
	<g>
		<path class="st0" d="M66.5,16.9c-0.9,1.5-0.6,3.6,0.1,5c0.1,0.3,0.4,0.1,0.3-0.1c-0.6-2.4-0.4-4.3-0.1-4.9
			C66.8,16.8,66.6,16.7,66.5,16.9z M66.5,23.8c-1.1,1.2-1.2,3.5-0.8,4.8c0.1,0.3,0.4,0.3,0.3,0C65.9,26.5,66.3,24.5,66.5,23.8
			C66.8,23.6,66.8,23.5,66.5,23.8z M65.6,29.8C65.7,29.7,65.6,29.6,65.6,29.8c-1.5,0.3-3,2.2-3.5,3.5c0,0.1,0.1,0.4,0.3,0.1
			C63.3,31.6,65.1,30.1,65.6,29.8z M65.2,23.8c0.3-0.1,0.5-0.5,3.1-1.1c0.1,0,0.1-0.1,0-0.1c-1.7,0-2.7,0.3-3.4,0.9
			C64.7,23.6,64.8,24,65.2,23.8z"/>
		<path class="st0" d="M61.1,27.3c0.3,0,0.9,0.1,1.2,0.3c0.8-1.8,1.5-3.5,2-6.9c0-0.3,0.1-0.3,0.1,0c0,3.6-0.5,5.2-1.2,7.2
			c1.1,0.4,2,0.8,3.6,1.5c0.1,0,0,0.3-0.1,0.1c-1.5-0.5-2.7-0.8-3.8-1.1c-1.2,3.1-2.8,4.1-3.5,4.5c-0.3,0.3-0.6,0.4-0.9,0.5
			c-0.5,0.3-1.1,0.1-1.2-0.1c-0.3-0.3,0-0.6,0.4-0.9c0.6-0.4,2.6-1.2,4.1-4.3c-0.6-0.1-1.4-0.1-1.7-0.1c-0.5,0-0.6-0.4-0.5-0.6
			C59.9,27.3,60.2,27.2,61.1,27.3L61.1,27.3z M60.5,33.3c-0.3,0-0.4,0.3-0.1,0.4c0.1,0,0.6,0,2,1.1c0.1,0.1,0.1,0,0.1-0.1
			C61.9,33.8,61,33.4,60.5,33.3z M67.3,31.5c-1.1,1.1-1.7,0.9-2,0.5c0.1,0.9,0.9,0.8,0.9,0.8h0.1c-0.9,0.4-2.3,1.1-3.1,2.4l-0.3,0.5
			c0.3-0.3,0.6-0.4,1.1-0.5c0.5-1.2,1.7-1.8,2.4-2.3c-0.5,0.6-0.3,1.1-0.1,1.5c0-0.3,0.5-0.8,0.5-0.8s0.5-0.5,0.6-1.1
			c0.4-1.5,1.2-1.8,1.2-1.8S68.3,30.5,67.3,31.5L67.3,31.5z"/>
		<path class="st0" d="M66.8,14c0.1-0.4,0.4-0.3,0.3,0c-2.3,6-7.3,11.5-7.3,11.5c-1.1,1.2-2.7,2.7-0.8,3.2c0.5,0.1,1.8,1.2-2,3.6
			c-0.6,0.4-1.2,0.1-1.1-0.4c0.1-0.3,1.2-0.9,1.7-1.2c0.8-0.6,0.9-0.8-0.1-1.2c-0.4-0.1-1.8-1.1-0.9-2c4.8-5.2,2.8-14.1,2.8-14.1
			c0-0.3,0.1-0.3,0.1,0c0,0,1.2,4.5,2.8,6c-0.4,0.5-1.2,2.2-2.2,4.3C61.1,22.4,63.6,20,66.8,14z"/>
	</g>
	<path class="st0" d="M64.7,38.8c0.6-0.1,1.1-0.8,1.1-1.4c0-0.9-0.6-1.5-1.5-1.5h-0.4c-0.8,0.3-1.2,0.9-1.2,1.1
		c-0.4,1.2,0.4,2.8,0.8,3.5c0.4,0.5,0.8,1.5,0,2c-2,0.6-2.6-2-2.8-2.9c-0.4-1.5-0.9-2.6-2.3-3.6c-0.1-0.1-0.3-0.1-0.3-0.3
		c0.1-0.1,0.3-0.3,0.5-0.3c1.4-0.8,1.8-0.6,2-0.6v-0.1c-0.1-0.3-0.9-0.3-2,0c-1.8,0.6-2,0.4-2.7-0.4c-0.1-0.1-0.3-0.3-0.5-0.4
		c-1.1-1.2-0.4-3.1-0.4-3.1c0.3-0.8,0.9-2,0.9-2l0.4-0.8c0.9-1.8,1.8-3.5,1.5-4.5c-0.1-0.6-0.4-0.8-0.8-1.2c0-0.3,0.3-0.5,0.4-0.6
		v-0.1c-0.3-0.3-0.3-0.6,0.1-1.1v-0.1c-0.3-0.3-0.4-0.5-0.1-1.1v-0.3c-0.3-0.1,0-0.6-0.9-1.5c-0.1-0.1-0.1,0-0.1,0
		c0.1,0.6-0.4,1.1-0.6,1.5c-0.1-0.1,0-0.4-0.3-0.6c-0.1-0.1-0.1,0-0.1,0c0.1,0.9-0.9,1.1-0.6,2.3c0,0-0.5-0.3-2.2-0.5
		c-0.3,0-0.6,0-0.5,0.4c0,0,0.1,0.1,0.4,0.1c0.4,0,1.1,0.3,1.1,0.3c0.1,0,0.4,0.1,0.5,0.1c0.4,0.1,0.1,0.3,0.1,0.3
		c-0.5,0.3-0.6,0.3-0.9,0.4c0,0-0.1,0-0.3,0.1c-0.3,0-0.4,0-0.4-0.3v-0.3c0.1-0.1-0.6-0.4-1.1-0.4h-2.3c-0.1,0-1.1,0.1-1.2,0.5
		c0.3-0.3,0.9-0.3,1.1-0.1c0.1,1.1,0.4,1.2,1.4,1.4l2.7,0.4c0.6,0.1,0.6,0.6,0.3,0.6l-0.9-0.1h-0.5c-0.5-0.3-1.2-0.6-2.2-0.3
		c-0.3,0.1-0.6,0-1.1-0.3c0.1-0.1,0.4-0.4,0.4-0.5c0,0-1.1,0.5-1.4-0.3c0,0.8,0.3,1.2,1.2,1.5c0-0.3-0.1-0.4-0.3-0.5
		c0.1,0.1,0.4,0.1,0.5,0.3c0.4,0.1,0.8,0,0.9,0c0,0.3-0.1,0.8-0.5,1.1c0.8,0,1.2-0.3,1.2-0.3s0,0.5-0.3,0.8c1.7,0,1.8-0.6,4.4-0.6
		c0.1-0.4,0.5-0.8,0.9-1.1c-0.4-0.4-0.4-1.2-0.4-1.4c0.3,0.6,0.6,1.2,1.5,1.4c-1.1,0.4-1.4,1.4-1.4,1.8c-0.4-0.1-0.6-0.1-0.9,0
		c0.3,0.1,0.5,0.3,0.5,0.6c0,0.4,0,0.6-0.4,1.1l-9.6,6.9c-0.4,0.4-0.5,1.1-0.8,1.7c-0.1,0.6-0.5,3.2,1.4,3.6c0.3,0,0.8,0.1,1.2-0.3
		h-0.4c0,0,0.1-0.3-0.4-0.3c-0.4,0-0.3-0.4-0.3-0.4s0.6,0.3,0.9-0.3c0,0-0.1,0.1-0.4,0c0-0.8-1.4,0.4-1.2-1.8
		c0.3-0.8,0.8-0.6,1.2-0.5c0.3,0.1,0.4-0.1,0.4-0.1c0.1,0,0.3,0.3,0.3,0.3c-0.1-0.6-0.6-0.8-1.4-1.1l0.5-0.3l1.8-0.8
		c0,0,1.2,2.3,2.8,4c-1.2,0-1.7,0.1-2.2,0.3c0,0-0.3,0-0.4,0.4c-0.3,0.4-0.4,0.9,0,1.8c0.3,0.6,0.9,1.4,2,2.4
		c1.1,0.9,1.5,2.2-0.3,2.9c-0.5,0.3-1.1,0.3-1.2,0.4c0,0-0.9-0.3-1.5-0.5C46.7,45,46,45,45.5,45.4l0.4-0.4c-0.1,0.3-0.1,0.5,0,0.8
		c0,0,0.1-0.5,0.4-0.4c0.5,0.4,0.3-0.3,0.9-0.1c0,0-0.5,0.3-0.1,0.9c0,0,0.1-0.4,0.3-0.4c0.6,0.3,0.1-0.4,1.5,0.1l1.8,0.8
		c0.1,0.1,0.5,0.3,0.9,0.5c0.1-0.4-0.5-0.9-0.6-1.1c0,0,1.2-1.2,2.2-1.8c0.3-0.1,0.5-0.3,0.6-0.4c0.3-0.3,0.3-0.5-0.1-1.1
		c-0.1-0.1-2.3-2.3-2.9-3.2c-0.8-0.9-0.8-1.5-0.1-1.7l2.6-0.3c0,0,1.1,0,1.5-0.1c0.1,0,0.1-0.1,0-0.1c-0.9-0.4-3.2-1.5-4.9-4.9
		c0.8-0.3,1.7,0,2,0.1h0.4l1.1-0.6c0,0.1-0.3,0.6-0.4,0.9c-0.1,0.1,0,0.3,0,0.3c0.6,0.9,1.2,2,2.3,2.8c0.1,0.1,0.3,0.1,0.3,0.3
		c0.5,0.5,0.5,1.5-0.3,2.7v0.1c-0.1,0.3-0.4,0.8-0.3,1.5c0,0.1,0.1,0.4,0.1,0.6c0,0.1,0,0.3,0.1,0.3c0.4,1.4,2.3,3.4,4.9,4.8
		c0.1,0.1,0.3,0.1,0.4,0.3l-1.2,2.7c0,0-0.6-0.1-1.2-0.5c-0.4-0.3-1.2-0.4-1.7,0c-0.1,0.1-0.1,0.1-0.1,0.3c-0.1,0.3-0.1,0.6,0,0.8
		c0,0,0.3-0.5,0.3-0.4c0.4,0.4,0.3-0.1,0.8,0c0,0-0.4,0.4,0,0.9c0,0,0.1-0.4,0.3-0.3c0.6,0.3,0.1-0.3,1.5,0.3c0,0,1.5,0.8,2.7,0.8
		c-0.1-0.4-0.9-0.9-0.9-0.9c0.1-1.7,0.6-3.2,1.1-4.3c0.5-1.1-1.7-0.8-2-2l-0.3-1.5c-0.3-2-0.4-2.6-0.6-3.5c-0.3-0.8-1.1-2.4-1.1-2.7
		H58c0.4,0.4,1.8,2,2,5.8c0,0,0,0.1,0.1,0.3c1.8,1.7,4.1,1.4,4.9,0.5c1.4-1.7,0.4-3.4-0.4-4.1c-0.8-0.8-0.9-1.2-0.8-2
		c0-0.3,0.1-0.3,0.1-0.3c0.1-0.1,0.3-0.3,0.5-0.3c0.4,0,0.6,0.3,0.6,0.6c0,0.4-0.3,0.6-0.6,0.6C64.2,38,64.2,38.5,64.7,38.8"/>
	<g>
		<path class="st0" d="M38.5,5.1c-0.4,1.4,0,2.8,0.9,3.7c0.1,0.1,0.3,0,0.3-0.1C38.6,7,38.7,5.6,38.5,5.1
			C38.6,4.8,38.6,4.8,38.5,5.1z M39.1,10.5c-0.6,0.6-0.6,1.7-0.5,2.4c0,0.1,0.3,0.1,0.3,0c0-1.2,0.4-2.2,0.5-2.4
			C39.4,10.4,39.2,10.4,39.1,10.5z M40.5,9.4c-1.1,0-2.2,0.3-2.6,0.5c-0.1,0.1,0,0.4,0.3,0.3C38.3,10.2,39,9.7,40.5,9.4
			C40.6,9.5,40.6,9.4,40.5,9.4z M33.8,16.6c0.1,0,0.4,0,0.5-0.4c0.3-0.8,0.3-2-0.5-2.6c-1.2-0.9-0.5-1.2,0.1-2.2
			c3.6-4.3,4.9-9.2,5-9.3c0.1-0.3,0-0.4-0.1,0c-1.7,4.8-5.4,8.4-6,9.2c-0.6,0.7-2,1.6-0.3,2.6c1.2,0.8,0.9,1.7,0.6,2.2
			c0,0.1,0,0.4,0.1,0.4C33.3,16.4,33.8,16.6,33.8,16.6z"/>
		<path class="st0" d="M39.6,14c-0.8-0.5-1.7-0.9-2.4-1.2c0.5-2.6,0.4-4.6,0.4-4.8c0-0.1-0.1-0.3-0.1,0c-0.1,1.5-0.5,3.2-0.9,4.6
			c-0.4-0.1-0.6-0.1-0.9-0.3c-0.6-0.1-1.1-0.1-1.2,0.1c-0.1,0.3,0,0.5,0.3,0.5c0.5,0,1.1,0.1,1.5,0.3c-0.5,1.4-0.9,2.6-1.2,2.9
			c-0.1,0.1,0,0.3,0.1,0.3c0.6,0.1,0.6-0.1,0.8-0.3c0.5-0.9,0.8-2,1.1-2.8c1.2,0.3,2.3,0.6,2.6,0.8C39.9,14.3,39.9,14.1,39.6,14z"/>
		<path class="st0" d="M38.3,14.3c-0.8,0.4-1.4,1.4-1.5,2.2c0,0.1,0.1,0.3,0.3,0.1c0.5-1.2,1.2-2,1.5-2.2
			C38.6,14.3,38.5,14.1,38.3,14.3z M21.6,12.2c0.1,0.6,0.1,1.1,1.1,1.2c0,0,0.1,0,0.1-0.1c-0.5-1.1,0-1.4,0.1-1.4c0,0,0.8-0.4,2,0.4
			c0.1,0.1,0.1,0,0.1,0c-0.5-0.9-1.2-1.5-2.4-1.5c-0.9,0-2.6,0.6-3.5-0.1h-0.1C19.5,11.8,20.6,12.6,21.6,12.2z M21.6,17.1
			c-0.3-0.3-0.8-0.9-0.5-1.4c0,0,0.1-0.8,1.2-1.1c-0.8-0.3-1.4-0.3-2.2,0.5c-0.5,0.5-1.4,2-2.3,2c1.1,0.5,2,0.4,2.4-0.5
			C20.6,16.9,20.9,17.4,21.6,17.1z M26.4,22.4C26.4,22.4,26.4,22.4,26.4,22.4c0.6-0.5,1.1-0.9,2-1.2c0,0.4-0.1,1.2,0.4,1.8
			c0-2.3,2-3.7,2.8-4.4c0.1-0.1,0-0.1-0.1-0.1c-0.8,0.3-1.4,0.4-1.8,0.6C29.3,19.4,26.9,20.4,26.4,22.4z M43.6,22.4
			C43.6,22.4,43.4,22.4,43.6,22.4c-0.6-0.5-1.1-0.9-2-1.2c0,0.4,0.1,1.2-0.4,1.8c0-2.3-2-3.7-2.8-4.4c-0.1-0.1,0-0.1,0.1-0.1
			c0.8,0.3,1.4,0.4,1.8,0.6C40.6,19.4,43.1,20.4,43.6,22.4z"/>
		<path class="st0" d="M24.8,18.7c-0.3,0.5-0.4,0.9-0.4,1.5c1.1-1.7,4.9-2,6.3-2.2c0.1,0,0.1-0.1,0-0.1c-1.2-0.4-2.4-1.2-2.4-1.2
			c-0.6-0.4-2.2-1.7-0.8-2.9c-0.5,0.1-1.4,0.3-1.4,1.2c-0.5-1.5-0.9-2-2.2-2.4c-0.1,0-0.1,0,0,0.1c0.5,0.6,1.1,1.5,1.2,2.4
			c-0.4-0.3-1.5-0.5-2.6,0.1c0.9,0,1.7-0.1,3.1,0.9c0.8,0.6,2.7,1.4,3.4,1.4c-1.5,0.1-4.9,0.5-5.7-0.9c-0.4,0.3-0.3,0.8,0.3,1.1
			c-0.9,0.3-1.7,0.4-2.2,1.8c0,0.1,0,0,0,0C21.8,19.2,23,18.5,24.8,18.7L24.8,18.7z M47.1,12c0.1,0,0.6,0.4,0.1,1.5
			c0,0.1,0,0.1,0.1,0.1c0.8-0.3,0.9-0.6,1.1-1.2c1.1,0.4,2.2-0.4,2.7-1.5c0-0.1,0-0.1-0.1,0c-0.9,0.6-2.6,0.1-3.5,0.1
			c-1.2,0-2,0.6-2.4,1.5c0,0,0,0.1,0.1,0C46.1,11.5,46.9,12,47.1,12z M52.1,17.1c-0.9,0-1.8-1.5-2.3-2c-0.8-0.6-1.5-0.8-2.2-0.5
			c1.2,0.3,1.2,1.1,1.2,1.1c0.3,0.6-0.3,1.2-0.5,1.4c0.8,0.3,1.1-0.1,1.2-0.5C50.1,17.6,51,17.7,52.1,17.1z"/>
		<path class="st0" d="M46.6,17.8c0.5-0.4,0.6-0.8,0.3-1.1c-0.9,1.4-4.1,1.1-5.7,0.9c0.6,0,2.4-0.8,3.4-1.4c1.4-0.9,2.2-0.9,3.1-0.9
			c-1.1-0.6-2.2-0.4-2.6-0.1c0-1.1,0.6-2,1.2-2.4v-0.1C45,13,44.5,13.6,44,15.2c0.1-0.9-0.9-1.2-1.4-1.2c1.4,1.2-0.1,2.6-0.8,2.9
			c0,0-1.2,0.8-2.4,1.2c-0.1,0,0,0.1,0,0.1c1.4,0.1,5.2,0.5,6.3,2.2c0.1-0.8-0.1-1.1-0.4-1.5c1.7-0.3,2.9,0.4,3.6,1.1c0,0,0.1,0,0,0
			C48.3,18.3,47.5,18.1,46.6,17.8z M33.7,17.7c0,0.1,0.3,0.3,0.4,0.3h0.4c0.1,0,0.1-0.1,0.1-0.3l-0.2-0.4c0-0.1-0.3-0.3-0.4-0.3
			h-0.4c-0.2,0-0.2,0.1-0.2,0.3C33.4,17.4,33.7,17.7,33.7,17.7z M35.4,17.7c0,0.1,0.3,0.3,0.4,0.3h0.4c0.1,0,0.1-0.1,0.1-0.3
			l-0.3-0.5c0-0.1-0.3-0.3-0.4-0.3h-0.4c-0.1,0-0.1,0.1-0.1,0.3L35.4,17.7z M36.9,17.5l0.1,0.3c0,0.1,0.1,0.3,0.3,0.3h0.1
			c0.1,0,0.4-0.3,0.4-0.4c0-0.3-0.3-0.5-0.5-0.5h-0.4c-0.1,0-0.1,0.1-0.1,0.3C36.7,17.4,36.9,17.5,36.9,17.5z M32.5,18
			C32.7,18,32.7,18,32.5,18c0.3,0,0.3-0.1,0.3-0.1l-0.3-0.5v-0.1c0,0-0.3,0.1-0.3,0.4C32.2,17.7,32.4,17.8,32.5,18z M37.3,18.5h-4.5
			l-0.1,0.4h-0.2c-0.4,0-0.5,0.1-0.6,0.4c0,0-1.1,1.8,0.4,3.5c0.3,0.3,0.5,0.6,0.8,0.6c0.3,0.3,0.8,0.3,0.8,0.3
			c0.5-0.1,2.2-0.8,2.7-1.2C37.1,21.7,37.6,21.5,37.3,18.5z M33.1,22.6h-0.3c-0.1-0.1-0.6-0.6-0.8-1.4v-0.4c0-0.6,0.3-1.2,0.5-1.4
			h0.1l0.1,0.1v0.1c0,0.1-0.1,0.4-0.1,0.8v0.5c0.1,0.8,0.3,1.2,0.4,1.2C33.3,22.4,33.3,22.6,33.1,22.6z M34.2,22.4h-0.3
			c-0.1-0.1-0.5-0.6-0.6-1.2v-0.3c0-0.6,0.3-1.2,0.4-1.2c0.1,0,0.3,0,0.3,0.1v1.2c0.1,0.6,0.3,1.1,0.4,1.2L34.2,22.4
			C34.3,22.3,34.2,22.3,34.2,22.4L34.2,22.4z M35.3,22c0,0-0.1,0.1-0.3,0c-0.1,0-0.5-0.5-0.5-1.2v-0.3c0-0.4,0.1-1.1,0.4-1.1h0.1
			v1.1c0.1,0.5,0.3,0.8,0.3,0.9L35.3,22L35.3,22z"/>
	</g>
</g>
</svg>
