<?xml version="1.0" encoding="utf-8"?>
<!-- Generator: Adobe Illustrator 24.1.2, SVG Export Plug-In . SVG Version: 6.00 Build 0)  -->
<svg version="1.1" id="Ebene_1" xmlns="http://www.w3.org/2000/svg" xmlns:xlink="http://www.w3.org/1999/xlink" x="0px" y="0px"
	 viewBox="0 0 25 20" style="enable-background:new 0 0 25 20;" xml:space="preserve">
<style type="text/css">
	.st0{fill:#FFFFFF;}
</style>
<path class="st0" d="M22.3,14.7l-6-6l6-6L22.3,14.7L22.3,14.7z M3.7,15.8l6-6l0.2,0.2c1.4,1.3,3.6,1.3,5,0l0.2-0.2l6,6
	C21.2,15.8,3.7,15.8,3.7,15.8z M2.6,2.8l6,6l-6,6C2.6,14.7,2.6,2.8,2.6,2.8z M21.2,1.6L13.8,9c-0.7,0.7-2.1,0.7-2.8,0L3.7,1.6
	L21.2,1.6L21.2,1.6z M1,0v17.4h23V0C24,0,1,0,1,0z"/>
</svg>
