<?xml version="1.0" encoding="utf-8"?>
<!-- Generator: Adobe Illustrator 24.0.3, SVG Export Plug-In . SVG Version: 6.00 Build 0)  -->
<svg version="1.1" id="Layer_1" xmlns="http://www.w3.org/2000/svg" xmlns:xlink="http://www.w3.org/1999/xlink" x="0px" y="0px"
	 viewBox="0 0 150 150" style="enable-background:new 0 0 150 150;" xml:space="preserve">
<style type="text/css">
	.st0{fill:#FFFFFF;}
</style>
<path class="st0" d="M129.1,117.7l-18.4-16c4.9-7.7,7.8-16.9,7.8-26.7c0-27.6-22.4-50-50-50s-50,22.4-50,50s22.4,50,50,50
	c12.7,0,24.3-4.8,33.2-12.6l18.2,15.9c1.3,1.2,3,1.7,4.6,1.7c2,0,3.9-0.8,5.3-2.4C132.3,124.7,132,120.3,129.1,117.7z M68.5,111
	c-19.9,0-36-16.1-36-36s16.1-36,36-36s36,16.1,36,36c0,8.5-3,16.3-7.9,22.5c-0.2,0.2-0.4,0.4-0.6,0.6c-0.2,0.3-0.5,0.6-0.6,0.9
	C88.7,106.4,79.1,111,68.5,111z"/>
</svg>
